<mxfile host="app.diagrams.net" modified="2023-09-21T18:02:12.312Z" agent="Mozilla/5.0 (Macintosh; Intel Mac OS X 10_15_7) AppleWebKit/605.1.15 (KHTML, like Gecko) Version/16.6 Safari/605.1.15" etag="eEO_elFFleWdJPpV5AT5" version="21.7.5" type="device">
  <diagram name="Страница — 1" id="FgUlqv_XBWWgRoLksLiu">
    <mxGraphModel dx="1638" dy="2302" grid="1" gridSize="10" guides="1" tooltips="1" connect="1" arrows="1" fold="1" page="1" pageScale="1" pageWidth="827" pageHeight="1169" math="0" shadow="0">
      <root>
        <mxCell id="0" />
        <mxCell id="1" parent="0" />
        <mxCell id="86s0yfsLYbyZF4xmXg7u-1" value="Untiled" style="swimlane;whiteSpace=wrap;html=1;" vertex="1" parent="1">
          <mxGeometry x="40" y="80" width="200" height="160" as="geometry" />
        </mxCell>
        <mxCell id="86s0yfsLYbyZF4xmXg7u-11" value="id" style="text;html=1;align=center;verticalAlign=middle;resizable=0;points=[];autosize=1;strokeColor=none;fillColor=none;" vertex="1" parent="86s0yfsLYbyZF4xmXg7u-1">
          <mxGeometry x="80" y="30" width="30" height="30" as="geometry" />
        </mxCell>
        <mxCell id="86s0yfsLYbyZF4xmXg7u-54" value="manufacturer" style="text;html=1;align=center;verticalAlign=middle;resizable=0;points=[];autosize=1;strokeColor=none;fillColor=none;" vertex="1" parent="86s0yfsLYbyZF4xmXg7u-1">
          <mxGeometry x="50" y="50" width="90" height="30" as="geometry" />
        </mxCell>
        <mxCell id="86s0yfsLYbyZF4xmXg7u-56" value="volume" style="text;html=1;align=center;verticalAlign=middle;resizable=0;points=[];autosize=1;strokeColor=none;fillColor=none;" vertex="1" parent="86s0yfsLYbyZF4xmXg7u-1">
          <mxGeometry x="65" y="70" width="60" height="30" as="geometry" />
        </mxCell>
        <mxCell id="86s0yfsLYbyZF4xmXg7u-57" value="rmp" style="text;html=1;align=center;verticalAlign=middle;resizable=0;points=[];autosize=1;strokeColor=none;fillColor=none;" vertex="1" parent="86s0yfsLYbyZF4xmXg7u-1">
          <mxGeometry x="75" y="90" width="40" height="30" as="geometry" />
        </mxCell>
        <mxCell id="86s0yfsLYbyZF4xmXg7u-58" value="type" style="text;html=1;align=center;verticalAlign=middle;resizable=0;points=[];autosize=1;strokeColor=none;fillColor=none;" vertex="1" parent="86s0yfsLYbyZF4xmXg7u-1">
          <mxGeometry x="70" y="110" width="50" height="30" as="geometry" />
        </mxCell>
        <mxCell id="86s0yfsLYbyZF4xmXg7u-59" value="spaces" style="text;html=1;align=center;verticalAlign=middle;resizable=0;points=[];autosize=1;strokeColor=none;fillColor=none;" vertex="1" parent="86s0yfsLYbyZF4xmXg7u-1">
          <mxGeometry x="65" y="130" width="60" height="30" as="geometry" />
        </mxCell>
        <mxCell id="86s0yfsLYbyZF4xmXg7u-73" value="" style="endArrow=none;html=1;rounded=0;" edge="1" parent="86s0yfsLYbyZF4xmXg7u-1">
          <mxGeometry width="50" height="50" relative="1" as="geometry">
            <mxPoint y="59" as="sourcePoint" />
            <mxPoint x="200" y="59" as="targetPoint" />
          </mxGeometry>
        </mxCell>
        <mxCell id="86s0yfsLYbyZF4xmXg7u-2" value="cpu" style="swimlane;whiteSpace=wrap;html=1;" vertex="1" parent="1">
          <mxGeometry x="40" y="260" width="200" height="160" as="geometry" />
        </mxCell>
        <mxCell id="86s0yfsLYbyZF4xmXg7u-12" value="id" style="text;html=1;align=center;verticalAlign=middle;resizable=0;points=[];autosize=1;strokeColor=none;fillColor=none;" vertex="1" parent="86s0yfsLYbyZF4xmXg7u-2">
          <mxGeometry x="85" y="20" width="30" height="30" as="geometry" />
        </mxCell>
        <mxCell id="86s0yfsLYbyZF4xmXg7u-55" value="manufacturer" style="text;html=1;align=center;verticalAlign=middle;resizable=0;points=[];autosize=1;strokeColor=none;fillColor=none;" vertex="1" parent="86s0yfsLYbyZF4xmXg7u-2">
          <mxGeometry x="55" y="40" width="90" height="30" as="geometry" />
        </mxCell>
        <mxCell id="86s0yfsLYbyZF4xmXg7u-60" value="instructions" style="text;html=1;align=center;verticalAlign=middle;resizable=0;points=[];autosize=1;strokeColor=none;fillColor=none;" vertex="1" parent="86s0yfsLYbyZF4xmXg7u-2">
          <mxGeometry x="60" y="60" width="80" height="30" as="geometry" />
        </mxCell>
        <mxCell id="86s0yfsLYbyZF4xmXg7u-61" value="clock" style="text;html=1;align=center;verticalAlign=middle;resizable=0;points=[];autosize=1;strokeColor=none;fillColor=none;" vertex="1" parent="86s0yfsLYbyZF4xmXg7u-2">
          <mxGeometry x="75" y="80" width="50" height="30" as="geometry" />
        </mxCell>
        <mxCell id="86s0yfsLYbyZF4xmXg7u-62" value="cashe" style="text;html=1;align=center;verticalAlign=middle;resizable=0;points=[];autosize=1;strokeColor=none;fillColor=none;" vertex="1" parent="86s0yfsLYbyZF4xmXg7u-2">
          <mxGeometry x="70" y="100" width="60" height="30" as="geometry" />
        </mxCell>
        <mxCell id="86s0yfsLYbyZF4xmXg7u-63" value="cores" style="text;html=1;align=center;verticalAlign=middle;resizable=0;points=[];autosize=1;strokeColor=none;fillColor=none;" vertex="1" parent="86s0yfsLYbyZF4xmXg7u-2">
          <mxGeometry x="75" y="120" width="50" height="30" as="geometry" />
        </mxCell>
        <mxCell id="86s0yfsLYbyZF4xmXg7u-74" value="" style="endArrow=none;html=1;rounded=0;" edge="1" parent="86s0yfsLYbyZF4xmXg7u-2">
          <mxGeometry width="50" height="50" relative="1" as="geometry">
            <mxPoint y="49" as="sourcePoint" />
            <mxPoint x="200" y="49" as="targetPoint" />
          </mxGeometry>
        </mxCell>
        <mxCell id="86s0yfsLYbyZF4xmXg7u-3" value="storage" style="swimlane;whiteSpace=wrap;html=1;" vertex="1" parent="1">
          <mxGeometry x="40" y="440" width="200" height="160" as="geometry" />
        </mxCell>
        <mxCell id="86s0yfsLYbyZF4xmXg7u-13" value="id" style="text;html=1;align=center;verticalAlign=middle;resizable=0;points=[];autosize=1;strokeColor=none;fillColor=none;" vertex="1" parent="86s0yfsLYbyZF4xmXg7u-3">
          <mxGeometry x="85" y="20" width="30" height="30" as="geometry" />
        </mxCell>
        <mxCell id="86s0yfsLYbyZF4xmXg7u-64" value="venror" style="text;html=1;align=center;verticalAlign=middle;resizable=0;points=[];autosize=1;strokeColor=none;fillColor=none;" vertex="1" parent="86s0yfsLYbyZF4xmXg7u-3">
          <mxGeometry x="70" y="50" width="60" height="30" as="geometry" />
        </mxCell>
        <mxCell id="86s0yfsLYbyZF4xmXg7u-65" value="speed" style="text;html=1;align=center;verticalAlign=middle;resizable=0;points=[];autosize=1;strokeColor=none;fillColor=none;" vertex="1" parent="86s0yfsLYbyZF4xmXg7u-3">
          <mxGeometry x="70" y="80" width="60" height="30" as="geometry" />
        </mxCell>
        <mxCell id="86s0yfsLYbyZF4xmXg7u-66" value="capacity" style="text;html=1;align=center;verticalAlign=middle;resizable=0;points=[];autosize=1;strokeColor=none;fillColor=none;" vertex="1" parent="86s0yfsLYbyZF4xmXg7u-3">
          <mxGeometry x="65" y="120" width="70" height="30" as="geometry" />
        </mxCell>
        <mxCell id="86s0yfsLYbyZF4xmXg7u-75" value="" style="endArrow=none;html=1;rounded=0;" edge="1" parent="86s0yfsLYbyZF4xmXg7u-3">
          <mxGeometry width="50" height="50" relative="1" as="geometry">
            <mxPoint y="50" as="sourcePoint" />
            <mxPoint x="200" y="50" as="targetPoint" />
          </mxGeometry>
        </mxCell>
        <mxCell id="86s0yfsLYbyZF4xmXg7u-100" value="" style="endArrow=none;html=1;rounded=0;" edge="1" parent="86s0yfsLYbyZF4xmXg7u-3">
          <mxGeometry width="50" height="50" relative="1" as="geometry">
            <mxPoint y="120" as="sourcePoint" />
            <mxPoint x="200" y="120" as="targetPoint" />
          </mxGeometry>
        </mxCell>
        <mxCell id="86s0yfsLYbyZF4xmXg7u-4" value="os" style="swimlane;whiteSpace=wrap;html=1;" vertex="1" parent="1">
          <mxGeometry x="40" y="620" width="200" height="160" as="geometry" />
        </mxCell>
        <mxCell id="86s0yfsLYbyZF4xmXg7u-14" value="id" style="text;html=1;align=center;verticalAlign=middle;resizable=0;points=[];autosize=1;strokeColor=none;fillColor=none;" vertex="1" parent="86s0yfsLYbyZF4xmXg7u-4">
          <mxGeometry x="85" y="30" width="30" height="30" as="geometry" />
        </mxCell>
        <mxCell id="86s0yfsLYbyZF4xmXg7u-67" value="name" style="text;html=1;align=center;verticalAlign=middle;resizable=0;points=[];autosize=1;strokeColor=none;fillColor=none;" vertex="1" parent="86s0yfsLYbyZF4xmXg7u-4">
          <mxGeometry x="75" y="50" width="50" height="30" as="geometry" />
        </mxCell>
        <mxCell id="86s0yfsLYbyZF4xmXg7u-70" value="version" style="text;html=1;align=center;verticalAlign=middle;resizable=0;points=[];autosize=1;strokeColor=none;fillColor=none;" vertex="1" parent="86s0yfsLYbyZF4xmXg7u-4">
          <mxGeometry x="70" y="70" width="60" height="30" as="geometry" />
        </mxCell>
        <mxCell id="86s0yfsLYbyZF4xmXg7u-71" value="kernel" style="text;html=1;align=center;verticalAlign=middle;resizable=0;points=[];autosize=1;strokeColor=none;fillColor=none;" vertex="1" parent="86s0yfsLYbyZF4xmXg7u-4">
          <mxGeometry x="70" y="90" width="60" height="30" as="geometry" />
        </mxCell>
        <mxCell id="86s0yfsLYbyZF4xmXg7u-72" value="lang" style="text;html=1;align=center;verticalAlign=middle;resizable=0;points=[];autosize=1;strokeColor=none;fillColor=none;" vertex="1" parent="86s0yfsLYbyZF4xmXg7u-4">
          <mxGeometry x="75" y="110" width="50" height="30" as="geometry" />
        </mxCell>
        <mxCell id="86s0yfsLYbyZF4xmXg7u-76" value="" style="endArrow=none;html=1;rounded=0;" edge="1" parent="86s0yfsLYbyZF4xmXg7u-4">
          <mxGeometry width="50" height="50" relative="1" as="geometry">
            <mxPoint y="59" as="sourcePoint" />
            <mxPoint x="200" y="59" as="targetPoint" />
          </mxGeometry>
        </mxCell>
        <mxCell id="86s0yfsLYbyZF4xmXg7u-5" value="server_status" style="swimlane;whiteSpace=wrap;html=1;startSize=20;" vertex="1" parent="1">
          <mxGeometry x="40" y="820" width="200" height="90" as="geometry" />
        </mxCell>
        <mxCell id="86s0yfsLYbyZF4xmXg7u-15" value="id" style="text;html=1;align=center;verticalAlign=middle;resizable=0;points=[];autosize=1;strokeColor=none;fillColor=none;" vertex="1" parent="86s0yfsLYbyZF4xmXg7u-5">
          <mxGeometry x="85" y="20" width="30" height="30" as="geometry" />
        </mxCell>
        <mxCell id="86s0yfsLYbyZF4xmXg7u-68" value="name" style="text;html=1;align=center;verticalAlign=middle;resizable=0;points=[];autosize=1;strokeColor=none;fillColor=none;" vertex="1" parent="86s0yfsLYbyZF4xmXg7u-5">
          <mxGeometry x="75" y="50" width="50" height="30" as="geometry" />
        </mxCell>
        <mxCell id="86s0yfsLYbyZF4xmXg7u-77" value="" style="endArrow=none;html=1;rounded=0;" edge="1" parent="86s0yfsLYbyZF4xmXg7u-5">
          <mxGeometry width="50" height="50" relative="1" as="geometry">
            <mxPoint y="50" as="sourcePoint" />
            <mxPoint x="200" y="50" as="targetPoint" />
          </mxGeometry>
        </mxCell>
        <mxCell id="86s0yfsLYbyZF4xmXg7u-6" value="server" style="swimlane;whiteSpace=wrap;html=1;" vertex="1" parent="1">
          <mxGeometry x="320" y="430" width="200" height="200" as="geometry" />
        </mxCell>
        <mxCell id="86s0yfsLYbyZF4xmXg7u-16" value="id" style="text;html=1;align=center;verticalAlign=middle;resizable=0;points=[];autosize=1;strokeColor=none;fillColor=none;" vertex="1" parent="86s0yfsLYbyZF4xmXg7u-6">
          <mxGeometry x="79" y="30" width="30" height="30" as="geometry" />
        </mxCell>
        <mxCell id="86s0yfsLYbyZF4xmXg7u-47" value="remark" style="text;html=1;align=center;verticalAlign=middle;resizable=0;points=[];autosize=1;strokeColor=none;fillColor=none;" vertex="1" parent="86s0yfsLYbyZF4xmXg7u-6">
          <mxGeometry x="70" y="50" width="60" height="30" as="geometry" />
        </mxCell>
        <mxCell id="86s0yfsLYbyZF4xmXg7u-48" value="id_ram" style="text;html=1;align=center;verticalAlign=middle;resizable=0;points=[];autosize=1;strokeColor=none;fillColor=none;" vertex="1" parent="86s0yfsLYbyZF4xmXg7u-6">
          <mxGeometry x="70" y="70" width="60" height="30" as="geometry" />
        </mxCell>
        <mxCell id="86s0yfsLYbyZF4xmXg7u-49" value="id_cpu" style="text;html=1;align=center;verticalAlign=middle;resizable=0;points=[];autosize=1;strokeColor=none;fillColor=none;" vertex="1" parent="86s0yfsLYbyZF4xmXg7u-6">
          <mxGeometry x="70" y="90" width="60" height="30" as="geometry" />
        </mxCell>
        <mxCell id="86s0yfsLYbyZF4xmXg7u-50" value="id_storage" style="text;html=1;align=center;verticalAlign=middle;resizable=0;points=[];autosize=1;strokeColor=none;fillColor=none;" vertex="1" parent="86s0yfsLYbyZF4xmXg7u-6">
          <mxGeometry x="60" y="110" width="80" height="30" as="geometry" />
        </mxCell>
        <mxCell id="86s0yfsLYbyZF4xmXg7u-51" value="id_os" style="text;html=1;align=center;verticalAlign=middle;resizable=0;points=[];autosize=1;strokeColor=none;fillColor=none;" vertex="1" parent="86s0yfsLYbyZF4xmXg7u-6">
          <mxGeometry x="75" y="130" width="50" height="30" as="geometry" />
        </mxCell>
        <mxCell id="86s0yfsLYbyZF4xmXg7u-52" value="load" style="text;html=1;align=center;verticalAlign=middle;resizable=0;points=[];autosize=1;strokeColor=none;fillColor=none;" vertex="1" parent="86s0yfsLYbyZF4xmXg7u-6">
          <mxGeometry x="75" y="150" width="50" height="30" as="geometry" />
        </mxCell>
        <mxCell id="86s0yfsLYbyZF4xmXg7u-53" value="status" style="text;html=1;align=center;verticalAlign=middle;resizable=0;points=[];autosize=1;strokeColor=none;fillColor=none;" vertex="1" parent="86s0yfsLYbyZF4xmXg7u-6">
          <mxGeometry x="70" y="170" width="60" height="30" as="geometry" />
        </mxCell>
        <mxCell id="86s0yfsLYbyZF4xmXg7u-78" value="" style="endArrow=none;html=1;rounded=0;" edge="1" parent="86s0yfsLYbyZF4xmXg7u-6">
          <mxGeometry width="50" height="50" relative="1" as="geometry">
            <mxPoint y="59" as="sourcePoint" />
            <mxPoint x="200" y="59" as="targetPoint" />
          </mxGeometry>
        </mxCell>
        <mxCell id="86s0yfsLYbyZF4xmXg7u-79" value="" style="endArrow=none;html=1;rounded=0;" edge="1" parent="86s0yfsLYbyZF4xmXg7u-6">
          <mxGeometry width="50" height="50" relative="1" as="geometry">
            <mxPoint y="179" as="sourcePoint" />
            <mxPoint x="200" y="179" as="targetPoint" />
          </mxGeometry>
        </mxCell>
        <mxCell id="86s0yfsLYbyZF4xmXg7u-80" value="" style="endArrow=none;html=1;rounded=0;" edge="1" parent="86s0yfsLYbyZF4xmXg7u-6">
          <mxGeometry width="50" height="50" relative="1" as="geometry">
            <mxPoint y="154.5" as="sourcePoint" />
            <mxPoint x="200" y="154.5" as="targetPoint" />
          </mxGeometry>
        </mxCell>
        <mxCell id="86s0yfsLYbyZF4xmXg7u-81" value="" style="endArrow=none;html=1;rounded=0;" edge="1" parent="86s0yfsLYbyZF4xmXg7u-6">
          <mxGeometry width="50" height="50" relative="1" as="geometry">
            <mxPoint y="139" as="sourcePoint" />
            <mxPoint x="200" y="139" as="targetPoint" />
          </mxGeometry>
        </mxCell>
        <mxCell id="86s0yfsLYbyZF4xmXg7u-82" value="" style="endArrow=none;html=1;rounded=0;" edge="1" parent="86s0yfsLYbyZF4xmXg7u-6">
          <mxGeometry width="50" height="50" relative="1" as="geometry">
            <mxPoint y="119" as="sourcePoint" />
            <mxPoint x="200" y="119" as="targetPoint" />
          </mxGeometry>
        </mxCell>
        <mxCell id="86s0yfsLYbyZF4xmXg7u-83" value="" style="endArrow=none;html=1;rounded=0;" edge="1" parent="86s0yfsLYbyZF4xmXg7u-6">
          <mxGeometry width="50" height="50" relative="1" as="geometry">
            <mxPoint y="99" as="sourcePoint" />
            <mxPoint x="200" y="99" as="targetPoint" />
          </mxGeometry>
        </mxCell>
        <mxCell id="86s0yfsLYbyZF4xmXg7u-84" value="" style="endArrow=none;html=1;rounded=0;" edge="1" parent="86s0yfsLYbyZF4xmXg7u-6">
          <mxGeometry width="50" height="50" relative="1" as="geometry">
            <mxPoint y="79" as="sourcePoint" />
            <mxPoint x="200" y="79" as="targetPoint" />
          </mxGeometry>
        </mxCell>
        <mxCell id="86s0yfsLYbyZF4xmXg7u-7" value="pool" style="swimlane;whiteSpace=wrap;html=1;" vertex="1" parent="1">
          <mxGeometry x="560" y="475" width="200" height="110" as="geometry" />
        </mxCell>
        <mxCell id="86s0yfsLYbyZF4xmXg7u-17" value="id" style="text;html=1;align=center;verticalAlign=middle;resizable=0;points=[];autosize=1;strokeColor=none;fillColor=none;" vertex="1" parent="86s0yfsLYbyZF4xmXg7u-7">
          <mxGeometry x="85" y="25" width="30" height="30" as="geometry" />
        </mxCell>
        <mxCell id="86s0yfsLYbyZF4xmXg7u-46" value="id_server" style="text;html=1;align=center;verticalAlign=middle;resizable=0;points=[];autosize=1;strokeColor=none;fillColor=none;" vertex="1" parent="86s0yfsLYbyZF4xmXg7u-7">
          <mxGeometry x="65" y="75" width="70" height="30" as="geometry" />
        </mxCell>
        <mxCell id="86s0yfsLYbyZF4xmXg7u-85" value="" style="endArrow=none;html=1;rounded=0;" edge="1" parent="86s0yfsLYbyZF4xmXg7u-7">
          <mxGeometry width="50" height="50" relative="1" as="geometry">
            <mxPoint y="65" as="sourcePoint" />
            <mxPoint x="200" y="65" as="targetPoint" />
          </mxGeometry>
        </mxCell>
        <mxCell id="86s0yfsLYbyZF4xmXg7u-8" value="order" style="swimlane;whiteSpace=wrap;html=1;" vertex="1" parent="1">
          <mxGeometry x="827" y="370" width="200" height="300" as="geometry" />
        </mxCell>
        <mxCell id="86s0yfsLYbyZF4xmXg7u-18" value="id" style="text;html=1;align=center;verticalAlign=middle;resizable=0;points=[];autosize=1;strokeColor=none;fillColor=none;" vertex="1" parent="86s0yfsLYbyZF4xmXg7u-8">
          <mxGeometry x="85" y="30" width="30" height="30" as="geometry" />
        </mxCell>
        <mxCell id="86s0yfsLYbyZF4xmXg7u-34" value="ip_adress" style="text;html=1;align=center;verticalAlign=middle;resizable=0;points=[];autosize=1;strokeColor=none;fillColor=none;" vertex="1" parent="86s0yfsLYbyZF4xmXg7u-8">
          <mxGeometry x="60" y="50" width="80" height="30" as="geometry" />
        </mxCell>
        <mxCell id="86s0yfsLYbyZF4xmXg7u-35" value="ip_pool" style="text;html=1;align=center;verticalAlign=middle;resizable=0;points=[];autosize=1;strokeColor=none;fillColor=none;" vertex="1" parent="86s0yfsLYbyZF4xmXg7u-8">
          <mxGeometry x="70" y="70" width="60" height="30" as="geometry" />
        </mxCell>
        <mxCell id="86s0yfsLYbyZF4xmXg7u-37" value="ip_customer" style="text;html=1;align=center;verticalAlign=middle;resizable=0;points=[];autosize=1;strokeColor=none;fillColor=none;" vertex="1" parent="86s0yfsLYbyZF4xmXg7u-8">
          <mxGeometry x="55" y="90" width="90" height="30" as="geometry" />
        </mxCell>
        <mxCell id="86s0yfsLYbyZF4xmXg7u-38" value="price" style="text;html=1;align=center;verticalAlign=middle;resizable=0;points=[];autosize=1;strokeColor=none;fillColor=none;" vertex="1" parent="86s0yfsLYbyZF4xmXg7u-8">
          <mxGeometry x="75" y="110" width="50" height="30" as="geometry" />
        </mxCell>
        <mxCell id="86s0yfsLYbyZF4xmXg7u-39" value="data" style="text;html=1;align=center;verticalAlign=middle;resizable=0;points=[];autosize=1;strokeColor=none;fillColor=none;" vertex="1" parent="86s0yfsLYbyZF4xmXg7u-8">
          <mxGeometry x="75" y="140" width="50" height="30" as="geometry" />
        </mxCell>
        <mxCell id="86s0yfsLYbyZF4xmXg7u-40" value="time" style="text;html=1;align=center;verticalAlign=middle;resizable=0;points=[];autosize=1;strokeColor=none;fillColor=none;" vertex="1" parent="86s0yfsLYbyZF4xmXg7u-8">
          <mxGeometry x="75" y="170" width="50" height="30" as="geometry" />
        </mxCell>
        <mxCell id="86s0yfsLYbyZF4xmXg7u-43" value="ram" style="text;html=1;align=center;verticalAlign=middle;resizable=0;points=[];autosize=1;strokeColor=none;fillColor=none;" vertex="1" parent="86s0yfsLYbyZF4xmXg7u-8">
          <mxGeometry x="80" y="200" width="40" height="30" as="geometry" />
        </mxCell>
        <mxCell id="86s0yfsLYbyZF4xmXg7u-44" value="hdd" style="text;html=1;align=center;verticalAlign=middle;resizable=0;points=[];autosize=1;strokeColor=none;fillColor=none;" vertex="1" parent="86s0yfsLYbyZF4xmXg7u-8">
          <mxGeometry x="80" y="230" width="40" height="30" as="geometry" />
        </mxCell>
        <mxCell id="86s0yfsLYbyZF4xmXg7u-45" value="os" style="text;html=1;align=center;verticalAlign=middle;resizable=0;points=[];autosize=1;strokeColor=none;fillColor=none;" vertex="1" parent="86s0yfsLYbyZF4xmXg7u-8">
          <mxGeometry x="80" y="260" width="40" height="30" as="geometry" />
        </mxCell>
        <mxCell id="86s0yfsLYbyZF4xmXg7u-86" value="" style="endArrow=none;html=1;rounded=0;" edge="1" parent="86s0yfsLYbyZF4xmXg7u-8">
          <mxGeometry width="50" height="50" relative="1" as="geometry">
            <mxPoint y="60" as="sourcePoint" />
            <mxPoint x="200" y="60" as="targetPoint" />
          </mxGeometry>
        </mxCell>
        <mxCell id="86s0yfsLYbyZF4xmXg7u-87" value="" style="endArrow=none;html=1;rounded=0;" edge="1" parent="86s0yfsLYbyZF4xmXg7u-8">
          <mxGeometry width="50" height="50" relative="1" as="geometry">
            <mxPoint y="80" as="sourcePoint" />
            <mxPoint x="200" y="80" as="targetPoint" />
          </mxGeometry>
        </mxCell>
        <mxCell id="86s0yfsLYbyZF4xmXg7u-88" value="" style="endArrow=none;html=1;rounded=0;" edge="1" parent="86s0yfsLYbyZF4xmXg7u-8">
          <mxGeometry width="50" height="50" relative="1" as="geometry">
            <mxPoint y="100" as="sourcePoint" />
            <mxPoint x="200" y="100" as="targetPoint" />
          </mxGeometry>
        </mxCell>
        <mxCell id="86s0yfsLYbyZF4xmXg7u-90" value="" style="endArrow=none;html=1;rounded=0;" edge="1" parent="86s0yfsLYbyZF4xmXg7u-8">
          <mxGeometry width="50" height="50" relative="1" as="geometry">
            <mxPoint y="120" as="sourcePoint" />
            <mxPoint x="200" y="120" as="targetPoint" />
          </mxGeometry>
        </mxCell>
        <mxCell id="86s0yfsLYbyZF4xmXg7u-9" value="ip_adress" style="swimlane;whiteSpace=wrap;html=1;" vertex="1" parent="1">
          <mxGeometry x="1080" y="280" width="200" height="100" as="geometry" />
        </mxCell>
        <mxCell id="86s0yfsLYbyZF4xmXg7u-19" value="id" style="text;html=1;align=center;verticalAlign=middle;resizable=0;points=[];autosize=1;strokeColor=none;fillColor=none;" vertex="1" parent="86s0yfsLYbyZF4xmXg7u-9">
          <mxGeometry x="85" y="30" width="30" height="30" as="geometry" />
        </mxCell>
        <mxCell id="86s0yfsLYbyZF4xmXg7u-33" value="public" style="text;html=1;align=center;verticalAlign=middle;resizable=0;points=[];autosize=1;strokeColor=none;fillColor=none;" vertex="1" parent="86s0yfsLYbyZF4xmXg7u-9">
          <mxGeometry x="70" y="60" width="60" height="30" as="geometry" />
        </mxCell>
        <mxCell id="86s0yfsLYbyZF4xmXg7u-89" value="" style="endArrow=none;html=1;rounded=0;" edge="1" parent="86s0yfsLYbyZF4xmXg7u-9">
          <mxGeometry width="50" height="50" relative="1" as="geometry">
            <mxPoint y="59" as="sourcePoint" />
            <mxPoint x="200" y="59" as="targetPoint" />
          </mxGeometry>
        </mxCell>
        <mxCell id="86s0yfsLYbyZF4xmXg7u-10" value="customer" style="swimlane;whiteSpace=wrap;html=1;" vertex="1" parent="1">
          <mxGeometry x="1080" y="550" width="200" height="200" as="geometry" />
        </mxCell>
        <mxCell id="86s0yfsLYbyZF4xmXg7u-20" value="id" style="text;html=1;align=center;verticalAlign=middle;resizable=0;points=[];autosize=1;strokeColor=none;fillColor=none;" vertex="1" parent="86s0yfsLYbyZF4xmXg7u-10">
          <mxGeometry x="85" y="35" width="30" height="30" as="geometry" />
        </mxCell>
        <mxCell id="86s0yfsLYbyZF4xmXg7u-23" value="fio" style="text;html=1;align=center;verticalAlign=middle;resizable=0;points=[];autosize=1;strokeColor=none;fillColor=none;" vertex="1" parent="86s0yfsLYbyZF4xmXg7u-10">
          <mxGeometry x="80" y="60" width="40" height="30" as="geometry" />
        </mxCell>
        <mxCell id="86s0yfsLYbyZF4xmXg7u-24" value="login" style="text;html=1;align=center;verticalAlign=middle;resizable=0;points=[];autosize=1;strokeColor=none;fillColor=none;" vertex="1" parent="86s0yfsLYbyZF4xmXg7u-10">
          <mxGeometry x="75" y="85" width="50" height="30" as="geometry" />
        </mxCell>
        <mxCell id="86s0yfsLYbyZF4xmXg7u-25" value="hash" style="text;html=1;align=center;verticalAlign=middle;resizable=0;points=[];autosize=1;strokeColor=none;fillColor=none;" vertex="1" parent="86s0yfsLYbyZF4xmXg7u-10">
          <mxGeometry x="75" y="110" width="50" height="30" as="geometry" />
        </mxCell>
        <mxCell id="86s0yfsLYbyZF4xmXg7u-31" value="phone" style="text;html=1;align=center;verticalAlign=middle;resizable=0;points=[];autosize=1;strokeColor=none;fillColor=none;" vertex="1" parent="86s0yfsLYbyZF4xmXg7u-10">
          <mxGeometry x="70" y="130" width="60" height="30" as="geometry" />
        </mxCell>
        <mxCell id="86s0yfsLYbyZF4xmXg7u-32" value="email" style="text;html=1;align=center;verticalAlign=middle;resizable=0;points=[];autosize=1;strokeColor=none;fillColor=none;" vertex="1" parent="86s0yfsLYbyZF4xmXg7u-10">
          <mxGeometry x="75" y="150" width="50" height="30" as="geometry" />
        </mxCell>
        <mxCell id="86s0yfsLYbyZF4xmXg7u-91" value="" style="endArrow=none;html=1;rounded=0;" edge="1" parent="86s0yfsLYbyZF4xmXg7u-10">
          <mxGeometry width="50" height="50" relative="1" as="geometry">
            <mxPoint y="65" as="sourcePoint" />
            <mxPoint x="200" y="65" as="targetPoint" />
          </mxGeometry>
        </mxCell>
        <mxCell id="86s0yfsLYbyZF4xmXg7u-92" value="" style="endArrow=classic;html=1;rounded=0;entryX=0;entryY=0.25;entryDx=0;entryDy=0;" edge="1" parent="1" target="86s0yfsLYbyZF4xmXg7u-10">
          <mxGeometry width="50" height="50" relative="1" as="geometry">
            <mxPoint x="1030" y="480" as="sourcePoint" />
            <mxPoint x="1150" y="450" as="targetPoint" />
            <Array as="points">
              <mxPoint x="1050" y="480" />
              <mxPoint x="1050" y="600" />
            </Array>
          </mxGeometry>
        </mxCell>
        <mxCell id="86s0yfsLYbyZF4xmXg7u-93" value="" style="endArrow=classic;html=1;rounded=0;entryX=0;entryY=0.5;entryDx=0;entryDy=0;" edge="1" parent="1" target="86s0yfsLYbyZF4xmXg7u-9">
          <mxGeometry width="50" height="50" relative="1" as="geometry">
            <mxPoint x="1030" y="440" as="sourcePoint" />
            <mxPoint x="1080" y="390" as="targetPoint" />
            <Array as="points">
              <mxPoint x="1050" y="440" />
              <mxPoint x="1050" y="330" />
            </Array>
          </mxGeometry>
        </mxCell>
        <mxCell id="86s0yfsLYbyZF4xmXg7u-94" value="" style="endArrow=classic;html=1;rounded=0;" edge="1" parent="1">
          <mxGeometry width="50" height="50" relative="1" as="geometry">
            <mxPoint x="830" y="460" as="sourcePoint" />
            <mxPoint x="760" y="520" as="targetPoint" />
            <Array as="points">
              <mxPoint x="790" y="460" />
              <mxPoint x="790" y="520" />
            </Array>
          </mxGeometry>
        </mxCell>
        <mxCell id="86s0yfsLYbyZF4xmXg7u-95" value="" style="endArrow=classic;html=1;rounded=0;" edge="1" parent="1">
          <mxGeometry width="50" height="50" relative="1" as="geometry">
            <mxPoint x="560" y="570" as="sourcePoint" />
            <mxPoint x="520" y="470" as="targetPoint" />
            <Array as="points">
              <mxPoint x="540" y="570" />
              <mxPoint x="540" y="470" />
            </Array>
          </mxGeometry>
        </mxCell>
        <mxCell id="86s0yfsLYbyZF4xmXg7u-97" value="" style="endArrow=classic;html=1;rounded=0;exitX=1;exitY=0.25;exitDx=0;exitDy=0;" edge="1" parent="1" source="86s0yfsLYbyZF4xmXg7u-1">
          <mxGeometry width="50" height="50" relative="1" as="geometry">
            <mxPoint x="300" y="200" as="sourcePoint" />
            <mxPoint x="320" y="520" as="targetPoint" />
            <Array as="points">
              <mxPoint x="300" y="120" />
              <mxPoint x="300" y="520" />
            </Array>
          </mxGeometry>
        </mxCell>
        <mxCell id="86s0yfsLYbyZF4xmXg7u-98" value="" style="endArrow=classic;html=1;rounded=0;exitX=1;exitY=0.25;exitDx=0;exitDy=0;" edge="1" parent="1" source="86s0yfsLYbyZF4xmXg7u-2">
          <mxGeometry width="50" height="50" relative="1" as="geometry">
            <mxPoint x="250" y="340" as="sourcePoint" />
            <mxPoint x="320" y="540" as="targetPoint" />
            <Array as="points">
              <mxPoint x="270" y="300" />
              <mxPoint x="270" y="540" />
            </Array>
          </mxGeometry>
        </mxCell>
        <mxCell id="86s0yfsLYbyZF4xmXg7u-99" value="" style="endArrow=classic;html=1;rounded=0;" edge="1" parent="1">
          <mxGeometry width="50" height="50" relative="1" as="geometry">
            <mxPoint x="240" y="580" as="sourcePoint" />
            <mxPoint x="320" y="560" as="targetPoint" />
            <Array as="points">
              <mxPoint x="280" y="580" />
              <mxPoint x="280" y="560" />
            </Array>
          </mxGeometry>
        </mxCell>
        <mxCell id="86s0yfsLYbyZF4xmXg7u-101" value="" style="endArrow=classic;html=1;rounded=0;exitX=1;exitY=0.25;exitDx=0;exitDy=0;entryX=0;entryY=0.75;entryDx=0;entryDy=0;" edge="1" parent="1" source="86s0yfsLYbyZF4xmXg7u-4" target="86s0yfsLYbyZF4xmXg7u-6">
          <mxGeometry width="50" height="50" relative="1" as="geometry">
            <mxPoint x="340" y="750" as="sourcePoint" />
            <mxPoint x="390" y="700" as="targetPoint" />
            <Array as="points">
              <mxPoint x="290" y="660" />
              <mxPoint x="290" y="580" />
            </Array>
          </mxGeometry>
        </mxCell>
        <mxCell id="86s0yfsLYbyZF4xmXg7u-102" value="" style="endArrow=classic;html=1;rounded=0;" edge="1" parent="1">
          <mxGeometry width="50" height="50" relative="1" as="geometry">
            <mxPoint x="240" y="860" as="sourcePoint" />
            <mxPoint x="320" y="620" as="targetPoint" />
            <Array as="points">
              <mxPoint x="300" y="860" />
              <mxPoint x="300" y="620" />
            </Array>
          </mxGeometry>
        </mxCell>
      </root>
    </mxGraphModel>
  </diagram>
</mxfile>
